<svg xmlns="http://www.w3.org/2000/svg" width="1956" height="1956" preserveAspectRatio="xMidYMid meet" version="1.0" viewBox="0 0 1467 1467"><metadata>Created by potrace 1.11, written by Peter Selinger 2001-2013</metadata><g fill="#000" stroke="none"><path d="M2198 10444 c-2 -1 -151 -5 -333 -8 -1189 -23 -1236 -25 -1365 -52 -257 -55 -434 -223 -484 -459 -13 -63 -15 -287 -3 -335 5 -23 16 -72 21 -100 16 -85 70 -240 144 -410 41 -96 171 -353 208 -411 13 -21 24 -41 24 -43 0 -10 164 -275 256 -415 16 -24 34 -51 39 -60 28 -44 50 -77 56 -81 3 -3 12 -16 19 -29 6 -13 38 -60 71 -105 32 -44 77 -108 101 -141 178 -252 396 -538 681 -895 31 -39 94 -117 109 -135 9 -11 66 -81 127 -155 145 -176 595 -707 610 -720 4 -3 69 -77 146 -165 173 -198 332 -375 354 -395 9 -8 31 -33 50 -55 19 -22 76 -85 126 -140 51 -55 105 -113 120 -130 129 -142 227 -246 431 -461 83 -88 186 -196 229 -242 l78 -82 4436 6 c2440 3 4838 6 5329 7 l892 0 0 3107 0 3107 -6235 0 c-3429 0 -6236 -1 -6237 -3z" transform="translate(0.000000,1467.000000) scale(0.100000,-0.100000)"/></g></svg>